# xmcd CD database file generated by OrangeCD 5.1
#
# Track frame offsets:
#	182
#	14022
#	27637
#	51072
#	69790
#	84782
#	100230
#	114537
#	135805
#	157380
#	179980
#
# Disc length: 2552 seconds
#
# Revision: 0
# Processed by: cddbd v1.5PL3 Copyright (c) Steve Scherf et al.
# Submitted via: OrangeCD 5.1
#
DISCID=9109f60b
DTITLE=Robert Earl Keen - Gravitational Forces
DYEAR=1900
DGENRE=Country
TTITLE0=My Home Ain't In The Hall Of Fame
TTITLE1=Hello New Orleans
TTITLE2=Wild Winds
TTITLE3=Not A Drop Of Rain
TTITLE4=I Still Miss Someone
TTITLE5=Fallin' Out
TTITLE6=High Plains Jamboree
TTITLE7=Walkin' Cane
TTITLE8=Goin' Nowhere Blues
TTITLE9=Snowin' On Raton
TTITLE10=Gravitational Forces
EXTD=
EXTT0=
EXTT1=
EXTT2=
EXTT3=
EXTT4=
EXTT5=
EXTT6=
EXTT7=
EXTT8=
EXTT9=
EXTT10=
PLAYORDER=
